<?xml version="1.0" encoding="utf-8"?>
<!-- Generator: Adobe Illustrator 16.0.0, SVG Export Plug-In . SVG Version: 6.00 Build 0)  -->
<!DOCTYPE svg PUBLIC "-//W3C//DTD SVG 1.1//EN" "http://www.w3.org/Graphics/SVG/1.1/DTD/svg11.dtd">
<svg version="1.1" id="Layer_1" xmlns="http://www.w3.org/2000/svg" xmlns:xlink="http://www.w3.org/1999/xlink" x="0px" y="0px"
	 width="256px" height="256px" viewBox="0 0 256 256" enable-background="new 0 0 256 256" xml:space="preserve">
<radialGradient id="SVGID_1_" cx="38.9219" cy="38.8872" r="194.6276" gradientUnits="userSpaceOnUse">
	<stop  offset="0" style="stop-color:#9D71B1"/>
	<stop  offset="1" style="stop-color:#6D4B93"/>
</radialGradient>
<rect fill="url(#SVGID_1_)" width="256" height="256"/>
<g>
	<path fill-rule="evenodd" clip-rule="evenodd" fill="#FFFFFF" d="M15.813,124.797c31.488-16.102,62.978-32.203,94.464-48.31
		c7.771-3.975,15.58-7.883,23.268-12.013c2.563-1.378,3.776-1.064,5.133,1.62c12.663,25.075,25.461,50.083,38.23,75.104
		c1.324,2.593,2.608,5.218,4.139,7.686c1.611,2.595,0.827,3.9-1.77,5.12c-4.552,2.145-8.938,4.634-13.423,6.927
		c-33.584,17.164-67.196,34.279-100.732,51.536c-3.021,1.556-4.272,1.172-5.813-1.886c-13.245-26.287-26.654-52.49-40.048-78.701
		c-1.014-1.98-2.292-3.829-3.448-5.741C15.813,125.695,15.813,125.246,15.813,124.797z M29.383,125.582
		c1.258,0.575,1.735,0.854,2.25,1.021c21.268,6.922,42.515,13.907,63.818,20.712c7.51,2.399,10.713,0.449,13.227-7.396
		c6.583-20.551,13.16-41.106,19.724-61.663c0.31-0.967,0.482-1.977,0.932-3.873C95.662,91.631,62.871,108.428,29.383,125.582z
		 M168.494,151.76c-0.65-0.535-0.864-0.831-1.145-0.924c-15.845-5.155-31.699-10.284-47.539-15.453
		c-1.979-0.646-2.874,0.182-3.501,1.948c-1.313,3.684-2.494,7.442-4.17,10.961c-2.812,5.909-6.719,7.787-13.135,6.479
		c-3.497-0.715-6.942-1.75-10.337-2.864c-2.539-0.834-3.805-0.307-4.645,2.395c-3.78,12.177-7.766,24.288-11.644,36.432
		c-1.172,3.666-2.236,7.367-3.349,11.049c0.225,0.191,0.45,0.383,0.676,0.574C102.555,185.53,135.403,168.706,168.494,151.76z
		 M136.282,76.816c-0.782,1.595-1.199,2.237-1.427,2.941c-4.926,15.206-9.787,30.432-14.783,45.614
		c-0.859,2.611,0.353,3.325,2.438,3.996c12.133,3.897,24.237,7.885,36.36,11.805c3.77,1.216,7.568,2.321,12.247,3.75
		C159.349,121.91,148.023,99.773,136.282,76.816z M62.059,200.534c0.55-1.103,0.791-1.459,0.917-1.852
		c5.054-15.636,10.055-31.291,15.187-46.896c0.857-2.608-0.332-3.336-2.427-4.008c-11.497-3.684-22.963-7.464-34.452-11.171
		c-4.406-1.424-8.844-2.748-14.17-4.398C38.944,155.341,50.323,177.588,62.059,200.534z"/>
	<path fill-rule="evenodd" clip-rule="evenodd" fill="#FFFFFF" d="M138.932,63.166c1.813-0.105,2.898-0.223,3.981-0.223
		c26.735-0.01,53.47-0.002,80.203-0.019c2.361-0.001,4.499-0.129,4.426,3.335c-0.053,2.609-0.983,3.541-3.572,3.536
		c-26.174-0.053-52.349-0.072-78.522,0.009C141.117,69.817,140.836,66.403,138.932,63.166z"/>
	<path fill-rule="evenodd" clip-rule="evenodd" fill="#FFFFFF" d="M150.348,84.08c0.863-0.107,1.712-0.305,2.558-0.305
		c27.295-0.015,54.591,0.003,81.882-0.034c2.347-0.003,3.482,0.715,3.492,3.259c0.012,2.53-0.796,3.628-3.473,3.622
		c-26.287-0.058-52.572-0.022-78.863-0.053C152.831,90.565,151.331,88.761,150.348,84.08z"/>
	<path fill-rule="evenodd" clip-rule="evenodd" fill="#FFFFFF" d="M161.1,105.573c0.866-0.106,1.717-0.301,2.563-0.302
		c27.184-0.014,54.363,0.001,81.547-0.033c2.338-0.004,3.847,0.407,3.825,3.268c-0.021,2.536-0.82,3.62-3.487,3.614
		c-26.285-0.057-52.576-0.022-78.862-0.054C163.577,112.063,162.063,110.235,161.1,105.573z"/>
</g>
<g>
	<path fill-rule="evenodd" clip-rule="evenodd" fill="#FFFFFF" d="M113.419,107.907c-0.138,0.502-0.268,1.007-0.417,1.506
		c-0.951,3.176-2.703,5.896-4.894,8.334c-1.069,1.19-2.273,2.26-3.422,3.38c-0.149,0.146-0.329,0.26-0.594,0.306
		c0.107-0.171,0.21-0.345,0.321-0.515c1.534-2.354,2.709-4.86,3.078-7.672c0.123-0.939,0.061-1.903,0.074-2.857
		c0.004-0.343-0.162-0.547-0.503-0.673c-6.585-2.42-13.272-2.927-20.092-1.111c-5.518,1.468-10.377,4.199-14.802,7.744
		c-5.025,4.025-9.252,8.781-12.783,14.161c-0.066,0.101-0.142,0.195-0.296,0.408c0.027-0.197,0.022-0.264,0.046-0.316
		c2.554-5.8,5.706-11.224,10.04-15.896c2.994-3.229,6.399-5.924,10.371-7.869c0.095-0.046,0.175-0.123,0.262-0.185
		c1.133-0.472,2.267-0.944,3.4-1.416c0.724-0.215,1.443-0.444,2.172-0.642c5.384-1.459,10.821-1.549,16.293-0.599
		c4.057,0.705,7.945,1.94,11.664,3.712C113.365,107.774,113.392,107.84,113.419,107.907z"/>
	<path fill-rule="evenodd" clip-rule="evenodd" fill="#FFFFFF" d="M89.028,128.509c0.405-0.637,0.802-1.281,1.218-1.91
		c1.043-1.58,2.094-3.152,3.144-4.728c0.097-0.145,0.207-0.282,0.401-0.545c-0.005,0.295,0.008,0.447-0.014,0.594
		c-0.373,2.658-1.678,4.716-3.958,6.147c-0.104,0.066-0.194,0.156-0.291,0.235C89.36,128.37,89.194,128.439,89.028,128.509z"/>
	<path fill-rule="evenodd" clip-rule="evenodd" fill="#FFFFFF" d="M90.727,114.41c0.189,0.151,0.31,0.255,0.439,0.348
		c0.375,0.27,0.406,0.533,0.13,0.94c-1.788,2.646-3.548,5.311-5.317,7.969c-0.108,0.164-0.212,0.33-0.367,0.568
		c0.373,0.108,0.688,0.201,1.066,0.311c-0.097,0.178-0.167,0.337-0.262,0.48c-0.816,1.234-1.648,2.458-2.449,3.702
		c-0.207,0.321-0.42,0.397-0.759,0.265c-0.547-0.214-1.1-0.413-1.748-0.655C84.58,123.651,87.632,119.062,90.727,114.41z"/>
	<path fill-rule="evenodd" clip-rule="evenodd" fill="#FFFFFF" d="M83.688,123.395c-0.99,1.486-1.955,2.938-2.992,4.497
		c-0.541-0.502-1.042-0.932-1.485-1.416c-0.088-0.096-0.009-0.441,0.096-0.605c0.83-1.29,1.685-2.563,2.534-3.84
		c1.868-2.81,3.736-5.618,5.606-8.427c0.549-0.825,0.648-0.841,1.536-0.229c-0.089,0.148-0.174,0.304-0.272,0.451
		c-1.807,2.72-3.618,5.437-5.419,8.16c-0.495,0.747-0.575,0.602,0.189,1.21C83.536,123.241,83.583,123.294,83.688,123.395z"/>
	<path fill-rule="evenodd" clip-rule="evenodd" fill="#FFFFFF" d="M92.815,116.999c0.548,0.736,0.619,1.309,0.094,2.032
		c-1.104,1.517-2.099,3.11-3.138,4.674c-0.108,0.162-0.209,0.33-0.261,0.609c0.443-0.131,0.887-0.261,1.431-0.421
		c-0.134,0.228-0.211,0.379-0.306,0.52c-0.928,1.398-1.844,2.805-2.803,4.183c-0.173,0.248-0.508,0.479-0.802,0.53
		c-0.729,0.127-1.478,0.146-2.218,0.208c-0.024-0.062-0.049-0.124-0.073-0.185C87.42,125.117,90.099,121.086,92.815,116.999z"/>
	<path fill-rule="evenodd" clip-rule="evenodd" fill="#FFFFFF" d="M85.685,112.612c-0.092,0.151-0.179,0.306-0.276,0.453
		c-1.347,2.027-2.68,4.063-4.055,6.071c-0.327,0.476-0.433,0.892-0.106,1.374c0.226,0.333,0.162,0.604-0.06,0.928
		c-0.904,1.319-1.781,2.658-2.713,4.058c-0.551-0.721-0.879-1.465-1.059-2.271c-0.036-0.16,0.083-0.382,0.187-0.539
		c2.149-3.246,4.312-6.484,6.458-9.732c0.416-0.631,1.023-0.337,1.545-0.461C85.633,112.532,85.659,112.572,85.685,112.612z"/>
	<path fill-rule="evenodd" clip-rule="evenodd" fill="#FFFFFF" d="M81.656,113.483c-0.81,1.923-1.357,3.983-2.746,5.655
		c-0.64,0.77-1.128,1.665-1.697,2.522C76.172,119.428,78.962,114.358,81.656,113.483z"/>
</g>
</svg>
